# xmcd CD database file
#
# Track frame offsets:
#	150
#	20712
#	40927
#
# Disc length: 816 seconds
#
# Revision: 0
# Processed by: cddbd v1.5PL3 Copyright (c) Steve Scherf et al.
# Submitted via: CDex 1.50
#
DISCID=1f032e03
DTITLE=岡田有希子 - Believe In You
DYEAR=2002
DGENRE=JPop
TTITLE0=Believe In You (2003 Strings Version)
TTITLE1=Believe In You (1984 Original Version)
TTITLE2=Believe In You (2003 Strings Version) (ｶﾗｵｹ)
EXTD=YEAR: 2002/12/04
EXTT0=
EXTT1=
EXTT2=
PLAYORDER=
